<svg width="400" height="300" viewBox="0 0 400 300" fill="none" xmlns="http://www.w3.org/2000/svg">
  <defs>
    <linearGradient id="area1" x1="0" y1="0" x2="0" y2="1"><stop offset="0%" stop-color="#3b82f6" stop-opacity="0.3"/><stop offset="100%" stop-color="#3b82f6" stop-opacity="0"/></linearGradient>
    <linearGradient id="area2" x1="0" y1="0" x2="0" y2="1"><stop offset="0%" stop-color="#8b5cf6" stop-opacity="0.2"/><stop offset="100%" stop-color="#8b5cf6" stop-opacity="0"/></linearGradient>
    <linearGradient id="area3" x1="0" y1="0" x2="0" y2="1"><stop offset="0%" stop-color="#34d399" stop-opacity="0.2"/><stop offset="100%" stop-color="#34d399" stop-opacity="0"/></linearGradient>
    <filter id="g"><feGaussianBlur stdDeviation="3"/></filter>
  </defs>
  <rect width="400" height="300" rx="12" fill="#0f0f1a" stroke="#1a1a2e" stroke-width="1"/>
  <text x="24" y="32" font-family="Inter,sans-serif" font-weight="600" font-size="13" fill="#fff">Multi-Asset Performance</text>
  <text x="24" y="48" font-family="Inter,sans-serif" font-size="10" fill="#666">Last 12 months &middot; All asset classes</text>
  <rect x="24" y="60" width="352" height="1" fill="#1a1a2e"/>
  <text x="24" y="82" font-family="Inter,sans-serif" font-size="9" fill="#444">140K</text>
  <text x="24" y="122" font-family="Inter,sans-serif" font-size="9" fill="#444">120K</text>
  <text x="24" y="162" font-family="Inter,sans-serif" font-size="9" fill="#444">100K</text>
  <text x="24" y="202" font-family="Inter,sans-serif" font-size="9" fill="#444">80K</text>
  <text x="24" y="242" font-family="Inter,sans-serif" font-size="9" fill="#444">60K</text>
  <rect x="44" y="70" width="1" height="190" fill="#1a1a2e"/>
  <rect x="44" y="260" width="340" height="1" fill="#1a1a2e"/>
  <path d="M50 240 L80 230 L110 235 L140 215 L170 210 L200 190 L230 185 L260 170 L290 160 L320 145 L350 130 L370 120" stroke="#3b82f6" stroke-width="2.5" fill="none" stroke-linecap="round" stroke-linejoin="round"/>
  <path d="M50 240 L80 230 L110 235 L140 215 L170 210 L200 190 L230 185 L260 170 L290 160 L320 145 L350 130 L370 120" fill="url(#area1)"/>
  <circle cx="370" cy="120" r="5" fill="#3b82f6"/><circle cx="370" cy="120" r="2" fill="#fff"/>
  <path d="M50 260 L80 245 L110 250 L140 235 L170 225 L200 215 L230 205 L260 195 L290 190 L320 180 L350 175 L370 170" stroke="#8b5cf6" stroke-width="2" fill="none" stroke-linecap="round" stroke-linejoin="round" stroke-dasharray="4 3"/>
  <path d="M50 260 L80 245 L110 250 L140 235 L170 225 L200 215 L230 205 L260 195 L290 190 L320 180 L350 175 L370 170" fill="url(#area2)"/>
  <circle cx="370" cy="170" r="4" fill="#8b5cf6"/>
  <path d="M50 280 L80 270 L110 272 L140 260 L170 258 L200 250 L230 248 L260 240 L290 235 L320 228 L350 222 L370 218" stroke="#34d399" stroke-width="1.5" fill="none" stroke-linecap="round" stroke-linejoin="round"/>
  <path d="M50 280 L80 270 L110 272 L140 260 L170 258 L200 250 L230 248 L260 240 L290 235 L320 228 L350 222 L370 218" fill="url(#area3)"/>
  <circle cx="370" cy="218" r="3" fill="#34d399"/>
  <rect x="44" y="276" width="8" height="8" rx="2" fill="#3b82f6"/><text x="56" y="283" font-family="Inter,sans-serif" font-size="8" fill="#666">Stocks</text>
  <rect x="105" y="276" width="8" height="8" rx="2" fill="#8b5cf6"/><text x="117" y="283" font-family="Inter,sans-serif" font-size="8" fill="#666">Crypto</text>
  <rect x="170" y="276" width="8" height="8" rx="2" fill="#34d399"/><text x="182" y="283" font-family="Inter,sans-serif" font-size="8" fill="#666">Forex</text>
  <text x="56" y="270" font-family="Inter,sans-serif" font-size="7" fill="#444">Jan</text>
  <text x="136" y="270" font-family="Inter,sans-serif" font-size="7" fill="#444">Mar</text>
  <text x="216" y="270" font-family="Inter,sans-serif" font-size="7" fill="#444">May</text>
  <text x="296" y="270" font-family="Inter,sans-serif" font-size="7" fill="#444">Jul</text>
  <text x="356" y="270" font-family="Inter,sans-serif" font-size="7" fill="#444">Sep</text>
</svg>
