<svg width="800" height="520" viewBox="0 0 800 520" fill="none" xmlns="http://www.w3.org/2000/svg">
  <defs>
    <linearGradient id="bgGrad" x1="0" y1="0" x2="0" y2="1"><stop offset="0%" stop-color="#0f0f1a"/><stop offset="100%" stop-color="#0a0a0f"/></linearGradient>
    <linearGradient id="blueGrad" x1="0" y1="0" x2="1" y2="1"><stop offset="0%" stop-color="#3b82f6"/><stop offset="100%" stop-color="#2563eb"/></linearGradient>
    <linearGradient id="purpleGrad" x1="0" y1="0" x2="1" y2="1"><stop offset="0%" stop-color="#8b5cf6"/><stop offset="100%" stop-color="#6d28d9"/></linearGradient>
    <linearGradient id="greenGrad" x1="0" y1="0" x2="1" y2="1"><stop offset="0%" stop-color="#34d399"/><stop offset="100%" stop-color="#10b981"/></linearGradient>
    <linearGradient id="chartGrad" x1="0" y1="0" x2="0" y2="1"><stop offset="0%" stop-color="#3b82f6" stop-opacity="0.3"/><stop offset="100%" stop-color="#3b82f6" stop-opacity="0"/></linearGradient>
    <linearGradient id="chartGrad2" x1="0" y1="0" x2="0" y2="1"><stop offset="0%" stop-color="#8b5cf6" stop-opacity="0.25"/><stop offset="100%" stop-color="#8b5cf6" stop-opacity="0"/></linearGradient>
    <filter id="glow"><feGaussianBlur stdDeviation="4" result="blur"/><feMerge><feMergeNode in="blur"/><feMergeNode in="SourceGraphic"/></feMerge></filter>
    <filter id="shadow"><feDropShadow dx="0" dy="4" stdDeviation="12" flood-color="#000" flood-opacity="0.4"/></filter>
  </defs>
  <rect width="800" height="520" rx="16" fill="url(#bgGrad)" stroke="#1a1a2e" stroke-width="1"/>
  <rect x="24" y="20" width="752" height="48" rx="10" fill="#111118" stroke="#1a1a2e" stroke-width="1"/>
  <rect x="40" y="32" width="28" height="24" rx="6" fill="url(#blueGrad)" opacity="0.9"/>
  <text x="76" y="48" font-family="Inter,sans-serif" font-weight="700" font-size="13" fill="#fff">Foundation Wealth</text>
  <rect x="200" y="34" width="16" height="20" rx="4" fill="#1a1a2e"/>
  <rect x="224" y="34" width="60" height="20" rx="4" fill="#1a1a2e"/>
  <rect x="292" y="34" width="60" height="20" rx="4" fill="#1a1a2e"/>
  <rect x="360" y="34" width="60" height="20" rx="4" fill="#1a1a2e"/>
  <rect x="670" y="32" width="90" height="24" rx="6" fill="url(#blueGrad)"/><text x="688" y="48" font-family="Inter,sans-serif" font-weight="600" font-size="11" fill="#fff">Get Started</text>
  <rect x="40" y="84" width="36" height="36" rx="8" fill="#1a1a2e"/>
  <rect x="40" y="84" width="36" height="36" rx="8" stroke="#3b82f6" stroke-width="1" fill="none" opacity="0.5"/>
  <text x="44" y="106" font-family="Inter,sans-serif" font-weight="700" font-size="20" fill="#3b82f6">$</text>
  <text x="88" y="106" font-family="Inter,sans-serif" font-weight="700" font-size="18" fill="#fff">Dashboard</text>
  <text x="88" y="122" font-family="Inter,sans-serif" font-size="11" fill="#666">Welcome back, Investor</text>

  <rect x="40" y="140" width="170" height="80" rx="10" fill="#111118" stroke="#1a1a2e" stroke-width="1" filter="url(#shadow)"/>
  <rect x="54" y="152" width="28" height="28" rx="7" fill="#3b82f6" opacity="0.15"/>
  <rect x="58" y="156" width="20" height="20" rx="4" fill="#3b82f6" opacity="0.3"/>
  <text x="90" y="170" font-family="Inter,sans-serif" font-size="10" fill="#666">Portfolio Value</text>
  <text x="54" y="198" font-family="Inter,sans-serif" font-weight="700" font-size="18" fill="#fff">$247,892.43</text>
  <text x="54" y="212" font-family="Inter,sans-serif" font-size="10" fill="#34d399">▲ +12.4% all time</text>

  <rect x="225" y="140" width="170" height="80" rx="10" fill="#111118" stroke="#1a1a2e" stroke-width="1" filter="url(#shadow)"/>
  <rect x="239" y="152" width="28" height="28" rx="7" fill="#10b981" opacity="0.15"/>
  <rect x="243" y="156" width="20" height="20" rx="4" fill="#10b981" opacity="0.3"/>
  <text x="275" y="170" font-family="Inter,sans-serif" font-size="10" fill="#666">Balance</text>
  <text x="239" y="198" font-family="Inter,sans-serif" font-weight="700" font-size="18" fill="#fff">$128,450.00</text>
  <rect x="239" y="202" width="36" height="16" rx="4" fill="#3b82f6" opacity="0.9"/><text x="244" y="213" font-family="Inter,sans-serif" font-weight="600" font-size="9" fill="#fff">+ Add</text>

  <rect x="410" y="140" width="170" height="80" rx="10" fill="#111118" stroke="#1a1a2e" stroke-width="1" filter="url(#shadow)"/>
  <rect x="424" y="152" width="28" height="28" rx="7" fill="#8b5cf6" opacity="0.15"/>
  <rect x="428" y="156" width="20" height="20" rx="4" fill="#8b5cf6" opacity="0.3"/>
  <text x="460" y="170" font-family="Inter,sans-serif" font-size="10" fill="#666">Positions</text>
  <text x="424" y="198" font-family="Inter,sans-serif" font-weight="700" font-size="18" fill="#fff">14</text>
  <text x="424" y="212" font-family="Inter,sans-serif" font-size="10" fill="#666">Open positions</text>

  <rect x="595" y="140" width="170" height="80" rx="10" fill="#111118" stroke="#1a1a2e" stroke-width="1" filter="url(#shadow)"/>
  <rect x="609" y="152" width="28" height="28" rx="7" fill="#f59e0b" opacity="0.15"/>
  <rect x="613" y="156" width="20" height="20" rx="4" fill="#f59e0b" opacity="0.3"/>
  <text x="645" y="170" font-family="Inter,sans-serif" font-size="10" fill="#666">Win Rate</text>
  <text x="609" y="198" font-family="Inter,sans-serif" font-weight="700" font-size="18" fill="#fff">68.3%</text>
  <text x="609" y="212" font-family="Inter,sans-serif" font-size="10" fill="#666">142 total trades</text>

  <rect x="40" y="236" width="370" height="200" rx="10" fill="#111118" stroke="#1a1a2e" stroke-width="1"/>
  <rect x="54" y="250" width="20" height="20" rx="5" fill="#3b82f6" opacity="0.15"/>
  <text x="80" y="264" font-family="Inter,sans-serif" font-weight="600" font-size="12" fill="#fff">Portfolio Performance</text>
  <rect x="40" y="290" width="370" height="146" rx="0" fill="none"/>
  <path d="M50 400 L100 380 L150 390 L200 350 L250 360 L300 320 L350 330 L370 310" stroke="url(#blueGrad)" stroke-width="2.5" fill="none" stroke-linecap="round" stroke-linejoin="round" filter="url(#glow)"/>
  <path d="M50 400 L100 380 L150 390 L200 350 L250 360 L300 320 L350 330 L370 310" fill="url(#chartGrad)"/>
  <circle cx="370" cy="310" r="5" fill="#3b82f6" filter="url(#glow)"/>
  <circle cx="370" cy="310" r="2.5" fill="#fff"/>
  <text x="50" y="420" font-family="Inter,sans-serif" font-size="9" fill="#444">Jan</text>
  <text x="115" y="420" font-family="Inter,sans-serif" font-size="9" fill="#444">Feb</text>
  <text x="180" y="420" font-family="Inter,sans-serif" font-size="9" fill="#444">Mar</text>
  <text x="245" y="420" font-family="Inter,sans-serif" font-size="9" fill="#444">Apr</text>
  <text x="310" y="420" font-family="Inter,sans-serif" font-size="9" fill="#444">May</text>
  <text x="365" y="420" font-family="Inter,sans-serif" font-size="9" fill="#444">Jun</text>
  <rect x="54" y="296" width="30" height="14" rx="3" fill="#34d399" opacity="0.2"/><text x="58" y="306" font-family="Inter,sans-serif" font-size="8" fill="#34d399">+24%</text>

  <rect x="425" y="236" width="340" height="200" rx="10" fill="#111118" stroke="#1a1a2e" stroke-width="1"/>
  <rect x="439" y="250" width="20" height="20" rx="5" fill="#8b5cf6" opacity="0.15"/>
  <text x="465" y="264" font-family="Inter,sans-serif" font-weight="600" font-size="12" fill="#fff">Asset Allocation</text>
  <circle cx="560" cy="340" r="60" fill="none" stroke="#1a1a2e" stroke-width="15"/>
  <circle cx="560" cy="340" r="60" fill="none" stroke="#3b82f6" stroke-width="15" stroke-dasharray="120 257" stroke-dashoffset="0" transform="rotate(-90 560 340)"/>
  <circle cx="560" cy="340" r="60" fill="none" stroke="#8b5cf6" stroke-width="15" stroke-dasharray="85 257" stroke-dashoffset="-125" transform="rotate(-90 560 340)"/>
  <circle cx="560" cy="340" r="60" fill="none" stroke="#34d399" stroke-width="15" stroke-dasharray="60 257" stroke-dashoffset="-215" transform="rotate(-90 560 340)"/>
  <circle cx="560" cy="340" r="60" fill="none" stroke="#f59e0b" stroke-width="15" stroke-dasharray="35 257" stroke-dashoffset="-280" transform="rotate(-90 560 340)"/>
  <circle cx="560" cy="340" r="28" fill="#111118"/><text x="548" y="345" font-family="Inter,sans-serif" font-weight="700" font-size="14" fill="#fff">100%</text>
  <rect x="640" y="300" width="8" height="8" rx="2" fill="#3b82f6"/><text x="654" y="307" font-family="Inter,sans-serif" font-size="10" fill="#aaa">Stocks 42%</text>
  <rect x="640" y="318" width="8" height="8" rx="2" fill="#8b5cf6"/><text x="654" y="325" font-family="Inter,sans-serif" font-size="10" fill="#aaa">Crypto 28%</text>
  <rect x="640" y="336" width="8" height="8" rx="2" fill="#34d399"/><text x="654" y="343" font-family="Inter,sans-serif" font-size="10" fill="#aaa">ETFs 18%</text>
  <rect x="640" y="354" width="8" height="8" rx="2" fill="#f59e0b"/><text x="654" y="361" font-family="Inter,sans-serif" font-size="10" fill="#aaa">Other 12%</text>

  <rect x="40" y="450" width="230" height="55" rx="8" fill="#111118" stroke="#1a1a2e" stroke-width="1"/>
  <rect x="54" y="462" width="20" height="20" rx="5" fill="#34d399" opacity="0.15"/>
  <text x="80" y="476" font-family="Inter,sans-serif" font-weight="600" font-size="10" fill="#34d399">Market Watch</text>
  <text x="54" y="494" font-family="Inter,sans-serif" font-size="9" fill="#666">AAPL $218.42</text>
  <text x="140" y="494" font-family="Inter,sans-serif" font-size="9" fill="#34d399">+2.3%</text>

  <rect x="285" y="450" width="230" height="55" rx="8" fill="#111118" stroke="#1a1a2e" stroke-width="1"/>
  <rect x="299" y="462" width="20" height="20" rx="5" fill="#3b82f6" opacity="0.15"/>
  <text x="325" y="476" font-family="Inter,sans-serif" font-weight="600" font-size="10" fill="#3b82f6">Trade Entry</text>

  <rect x="530" y="450" width="235" height="55" rx="8" fill="#111118" stroke="#1a1a2e" stroke-width="1"/>
  <rect x="544" y="462" width="20" height="20" rx="5" fill="#f59e0b" opacity="0.15"/>
  <text x="570" y="476" font-family="Inter,sans-serif" font-weight="600" font-size="10" fill="#f59e0b">Recent Trades</text>
  <text x="544" y="494" font-family="Inter,sans-serif" font-size="9" fill="#666">BTC Buy 0.5</text>
  <text x="640" y="494" font-family="Inter,sans-serif" font-size="9" fill="#34d399">Filled</text>
</svg>
