<svg width="400" height="300" viewBox="0 0 400 300" fill="none" xmlns="http://www.w3.org/2000/svg">
  <defs>
    <radialGradient id="globeGrad" cx="0.5" cy="0.5" r="0.5"><stop offset="0%" stop-color="#3b82f6" stop-opacity="0.15"/><stop offset="100%" stop-color="#3b82f6" stop-opacity="0"/></radialGradient>
    <linearGradient id="lineGrad" x1="0" y1="0" x2="0" y2="1"><stop offset="0%" stop-color="#3b82f6" stop-opacity="0.6"/><stop offset="100%" stop-color="#3b82f6" stop-opacity="0"/></linearGradient>
    <filter id="gg"><feGaussianBlur stdDeviation="2"/></filter>
  </defs>
  <rect width="400" height="300" rx="12" fill="#0f0f1a" stroke="#1a1a2e" stroke-width="1"/>
  <circle cx="200" cy="150" r="100" fill="url(#globeGrad)"/>
  <circle cx="200" cy="150" r="85" fill="none" stroke="#1a1a2e" stroke-width="1.5"/>
  <ellipse cx="200" cy="150" rx="85" ry="85" fill="none" stroke="#3b82f6" stroke-width="0.5" opacity="0.15"/>
  <ellipse cx="200" cy="150" rx="85" ry="35" fill="none" stroke="#3b82f6" stroke-width="0.8" opacity="0.2" stroke-dasharray="3 3"/>
  <ellipse cx="200" cy="150" rx="85" ry="55" fill="none" stroke="#3b82f6" stroke-width="0.5" opacity="0.12"/>
  <ellipse cx="200" cy="150" rx="40" ry="85" fill="none" stroke="#3b82f6" stroke-width="0.5" opacity="0.12"/>
  <path d="M115 120 Q150 110 200 115 Q250 120 285 130" stroke="#3b82f6" stroke-width="0.8" opacity="0.2" fill="none"/>
  <path d="M115 180 Q150 190 200 185 Q250 180 285 170" stroke="#3b82f6" stroke-width="0.8" opacity="0.2" fill="none"/>
  <circle cx="155" cy="130" r="3" fill="#34d399" filter="url(#gg)"/>
  <circle cx="240" cy="120" r="2.5" fill="#f59e0b" filter="url(#gg)"/>
  <circle cx="180" cy="170" r="2" fill="#34d399" filter="url(#gg)"/>
  <circle cx="260" cy="165" r="2.5" fill="#34d399" filter="url(#gg)"/>
  <circle cx="135" cy="155" r="2" fill="#f87171" filter="url(#gg)"/>
  <line x1="155" y1="130" x2="240" y2="120" stroke="#3b82f6" stroke-width="0.5" opacity="0.3"/>
  <line x1="180" y1="170" x2="260" y2="165" stroke="#3b82f6" stroke-width="0.5" opacity="0.25"/>
  <line x1="155" y1="130" x2="180" y2="170" stroke="#3b82f6" stroke-width="0.5" opacity="0.2"/>
  <text x="132" y="274" font-family="Inter,sans-serif" font-weight="600" font-size="14" fill="#fff">Global Market Access</text>
  <text x="100" y="292" font-family="Inter,sans-serif" font-size="10" fill="#666" text-anchor="middle">40+ exchanges &middot; 24/7 trading &middot; 8 asset classes</text>
  <rect x="78" y="260" width="6" height="6" rx="1.5" fill="#34d399"/><text x="88" y="265" font-family="Inter,sans-serif" font-size="8" fill="#666">NYSE</text>
  <rect x="128" y="260" width="6" height="6" rx="1.5" fill="#f59e0b"/><text x="138" y="265" font-family="Inter,sans-serif" font-size="8" fill="#666">NASDAQ</text>
  <rect x="188" y="260" width="6" height="6" rx="1.5" fill="#8b5cf6"/><text x="198" y="265" font-family="Inter,sans-serif" font-size="8" fill="#666">LSE</text>
  <rect x="238" y="260" width="6" height="6" rx="1.5" fill="#34d399"/><text x="248" y="265" font-family="Inter,sans-serif" font-size="8" fill="#666">Binance</text>
  <rect x="298" y="260" width="6" height="6" rx="1.5" fill="#3b82f6"/><text x="308" y="265" font-family="Inter,sans-serif" font-size="8" fill="#666">Coinbase</text>
</svg>
