<svg width="400" height="300" viewBox="0 0 400 300" fill="none" xmlns="http://www.w3.org/2000/svg">
  <defs>
    <linearGradient id="shieldGrad" x1="0" y1="0" x2="0" y2="1"><stop offset="0%" stop-color="#3b82f6"/><stop offset="100%" stop-color="#8b5cf6"/></linearGradient>
    <linearGradient id="ringGrad" x1="0" y1="0" x2="1" y2="1"><stop offset="0%" stop-color="#3b82f6" stop-opacity="0.2"/><stop offset="100%" stop-color="#8b5cf6" stop-opacity="0"/></linearGradient>
    <filter id="sg"><feGaussianBlur stdDeviation="6"/></filter>
  </defs>
  <rect width="400" height="300" rx="12" fill="#0f0f1a" stroke="#1a1a2e" stroke-width="1"/>
  <circle cx="200" cy="140" r="100" fill="url(#ringGrad)" filter="url(#sg)"/>
  <circle cx="200" cy="140" r="80" fill="none" stroke="#1a1a2e" stroke-width="1"/>
  <circle cx="200" cy="140" r="60" fill="none" stroke="#3b82f6" stroke-width="0.5" opacity="0.3" stroke-dasharray="4 4"/>
  <path d="M200 80 L200 90 M200 190 L200 200 M140 140 L150 140 M250 140 L260 140" stroke="#3b82f6" stroke-width="1" opacity="0.4"/>
  <path d="M155 95 L162 102 M238 178 L245 185 M155 185 L162 178 M238 102 L245 95" stroke="#3b82f6" stroke-width="0.8" opacity="0.3"/>
  <path d="M200 80 Q220 90 230 100 Q240 110 245 125 Q250 140 245 155 Q240 170 230 180 Q220 190 200 200 Q180 190 170 180 Q160 170 155 155 Q150 140 155 125 Q160 110 170 100 Q180 90 200 80Z" fill="url(#shieldGrad)" opacity="0.15" stroke="url(#shieldGrad)" stroke-width="1.5"/>
  <path d="M200 95 L200 140 L230 155" stroke="url(#shieldGrad)" stroke-width="3" stroke-linecap="round" stroke-linejoin="round" fill="none"/>
  <text x="156" y="250" font-family="Inter,sans-serif" font-weight="600" font-size="14" fill="#fff">Bank-Grade Security</text>
  <text x="132" y="268" font-family="Inter,sans-serif" font-size="10" fill="#666" text-anchor="middle">256-bit encryption &bull; 2FA &bull; Audit logging</text>
  <rect x="50" y="275" width="6" height="6" rx="1.5" fill="#34d399"/>
  <text x="60" y="280" font-family="Inter,sans-serif" font-size="8" fill="#666">SOC 2</text>
  <rect x="115" y="275" width="6" height="6" rx="1.5" fill="#34d399"/>
  <text x="125" y="280" font-family="Inter,sans-serif" font-size="8" fill="#666">GDPR</text>
  <rect x="175" y="275" width="6" height="6" rx="1.5" fill="#34d399"/>
  <text x="185" y="280" font-family="Inter,sans-serif" font-size="8" fill="#666">PCI-DSS</text>
  <rect x="245" y="275" width="6" height="6" rx="1.5" fill="#34d399"/>
  <text x="255" y="280" font-family="Inter,sans-serif" font-size="8" fill="#666">ISO 27001</text>
  <rect x="320" y="275" width="6" height="6" rx="1.5" fill="#34d399"/>
  <text x="330" y="280" font-family="Inter,sans-serif" font-size="8" fill="#666">FINRA</text>
</svg>
